<?xml version="1.0" encoding="UTF-8"?>
<svg width="12px" height="18px" viewBox="0 0 12 18" version="1.1" xmlns="http://www.w3.org/2000/svg" xmlns:xlink="http://www.w3.org/1999/xlink">
    <!-- Generator: Sketch 54 (76480) - https://sketchapp.com -->
    <title>ico_voice_record</title>
    <desc>Created with Sketch.</desc>
    <g id="Page-1" stroke="none" stroke-width="1" fill="none" fill-rule="evenodd">
        <g id="Search-Copy-2" transform="translate(-19.000000, -16.000000)" fill="#FFFFFF">
            <g id="ico_voice_record" transform="translate(19.000000, 17.000000)">
                <path d="M6.10004163,0 C4.16867163,0 2.60004163,1.55139231 2.60004163,3.46153846 L2.60004163,8.53846154 C2.60004163,10.4486077 4.16867163,12 6.10004163,12 C8.03141163,12 9.60004163,10.4486077 9.60004163,8.53846154 L9.60004163,3.46153846 C9.60004163,1.55139231 8.03141163,0 6.10004163,0 Z M6.10004163,1 C7.49297345,1 8.60004163,2.10706818 8.60004163,3.5 L8.60004163,8.5 C8.60004163,9.89293182 7.49297345,11 6.10004163,11 C4.70710981,11 3.60004163,9.89293182 3.60004163,8.5 L3.60004163,3.5 C3.60004163,2.10706818 4.70710981,1 6.10004163,1 Z M1.06556396,6.00003921 C0.821182535,5.99671473 0.596486373,6.20532482 0.600084261,6.43221048 L0.600084261,8.5598753 C0.600084261,11.2394564 2.81654404,13.4318022 5.64171157,13.6462708 L5.64171157,15.1489341 L3.80839255,15.1489341 C3.55505078,15.1489341 3.35006279,15.3392601 3.35006279,15.574467 C3.35006279,15.809674 3.55505765,16 3.80839255,16 L8.3916901,16 C8.64503187,16 8.85001986,15.809674 8.85001986,15.574467 C8.85001986,15.3392601 8.645025,15.1497639 8.3916901,15.1489341 L6.55837108,15.1489341 L6.55837108,13.6462708 C9.38351569,13.431015 11.5999984,11.2394564 11.5999984,8.5598753 L11.5999984,6.43221048 C11.6035791,6.20780567 11.3842603,6.00086899 11.1416686,6.00086899 C10.899077,6.00086899 10.6797639,6.20781844 10.6833389,6.43221048 L10.6833389,8.5598753 C10.6833389,10.9243492 8.64681936,12.8152049 6.10004132,12.8152049 C3.55326329,12.8152049 1.51674377,10.924413 1.51674377,8.5598753 L1.51674377,6.43221048 C1.52032447,6.20946525 1.30548125,6.00335836 1.06556396,6.00003921 L1.06556396,6.00003921 Z" id="Shape" stroke="#FFFFFF" stroke-width="0.15" fill-rule="nonzero"></path>
                <circle id="Oval" fill-opacity="0" cx="9.5" cy="12.5" r="2.5"></circle>
            </g>
        </g>
    </g>
</svg>